<?xml version="1.0" encoding="utf-8"?>
<!-- Generator: Adobe Illustrator 16.0.0, SVG Export Plug-In . SVG Version: 6.00 Build 0)  -->
<!DOCTYPE svg PUBLIC "-//W3C//DTD SVG 1.1//EN" "http://www.w3.org/Graphics/SVG/1.1/DTD/svg11.dtd">
<svg version="1.1" id="Layer_1" xmlns="http://www.w3.org/2000/svg" xmlns:xlink="http://www.w3.org/1999/xlink" x="0px" y="0px"
	 width="512px" height="512px" viewBox="0 0 512 512" enable-background="new 0 0 512 512" xml:space="preserve">
<g>
	
		<line fill="none" stroke="#000000" stroke-width="26" stroke-linecap="round" stroke-miterlimit="10" x1="134" y1="310" x2="225" y2="202"/>
	
		<line fill="none" stroke="#000000" stroke-width="26" stroke-linecap="round" stroke-miterlimit="10" x1="210.5" y1="310" x2="301.5" y2="202"/>
	
		<line fill="none" stroke="#000000" stroke-width="26" stroke-linecap="round" stroke-miterlimit="10" x1="287" y1="310" x2="378" y2="202"/>
</g>
<g>
	<path d="M256,58c52.9,0,102.6,20.6,140,58c37.4,37.4,58,87.1,58,140s-20.6,102.6-58,140c-37.4,37.4-87.1,58-140,58
		c-52.9,0-102.6-20.6-140-58c-37.4-37.4-58-87.1-58-140s20.6-102.6,58-140C153.4,78.6,203.1,58,256,58 M256,32
		C132.3,32,32,132.3,32,256s100.3,224,224,224c123.7,0,224-100.3,224-224S379.7,32,256,32L256,32z"/>
</g>
</svg>
