<?xml version="1.0" encoding="utf-8"?>
<!-- Generator: Adobe Illustrator 16.0.0, SVG Export Plug-In . SVG Version: 6.00 Build 0)  -->
<!DOCTYPE svg PUBLIC "-//W3C//DTD SVG 1.1//EN" "http://www.w3.org/Graphics/SVG/1.1/DTD/svg11.dtd">
<svg version="1.1" id="Layer_1" xmlns="http://www.w3.org/2000/svg" xmlns:xlink="http://www.w3.org/1999/xlink" x="0px" y="0px"
	 width="512px" height="512px" viewBox="0 0 512 512" enable-background="new 0 0 512 512" xml:space="preserve">
<g>
	<path d="M480,256c0,123.7-100.3,224-224,224C132.3,480,32,379.7,32,256S132.3,32,256,32C379.7,32,480,132.3,480,256z M143.9,318.4
		l91-108.1c4.6-5.5,3.9-13.7-1.6-18.3c-5.5-4.6-13.7-3.9-18.3,1.6l-91,108.1c-4.6,5.5-3.9,13.7,1.6,18.3c2.4,2.1,5.4,3.1,8.4,3.1
		C137.7,323,141.4,321.5,143.9,318.4z M220.4,318.4l91-108.1c4.6-5.5,3.9-13.7-1.6-18.3c-5.5-4.6-13.7-3.9-18.3,1.6l-91,108.1
		c-4.6,5.5-3.9,13.7,1.6,18.3c2.4,2.1,5.4,3.1,8.4,3.1C214.2,323,217.9,321.5,220.4,318.4z M296.9,318.4l91-108.1
		c4.6-5.5,3.9-13.7-1.6-18.3c-5.5-4.6-13.7-3.9-18.3,1.6l-91,108.1c-4.6,5.5-3.9,13.7,1.6,18.3c2.4,2.1,5.4,3.1,8.4,3.1
		C290.7,323,294.3,321.5,296.9,318.4z"/>
</g>
</svg>
